<?xml version="1.0" standalone="no"?>
<!DOCTYPE svg PUBLIC "-//W3C//DTD SVG 20010904//EN"
 "http://www.w3.org/TR/2001/REC-SVG-20010904/DTD/svg10.dtd">
<svg version="1.0" xmlns="http://www.w3.org/2000/svg"
 width="1700.000000pt" height="1212.000000pt" viewBox="0 0 1700.000000 1212.000000"
 preserveAspectRatio="xMidYMid meet">

<g transform="translate(0.000000,1212.000000) scale(0.100000,-0.100000)"
fill="#000000" stroke="none">
<path d="M6512 8790 c0 -14 2 -19 5 -12 2 6 2 18 0 25 -3 6 -5 1 -5 -13z"/>
<path d="M6063 8745 c0 -22 2 -30 4 -17 2 12 2 30 0 40 -3 9 -5 -1 -4 -23z"/>
<path d="M6200 8755 c7 -8 19 -15 26 -15 8 0 14 7 14 15 0 10 -10 15 -26 15
-22 0 -25 -2 -14 -15z"/>
<path d="M6335 8760 c-8 -13 25 -26 34 -13 3 6 13 13 21 16 8 3 1 6 -17 6 -17
1 -35 -4 -38 -9z"/>
<path d="M6451 8723 c-1 -24 -4 -43 -9 -43 -4 0 -16 -16 -27 -36 -10 -19 -31
-43 -47 -52 -19 -11 -28 -24 -28 -42 0 -37 9 -45 65 -57 40 -10 52 -9 60 1 9
11 15 10 35 -6 22 -18 25 -18 28 -4 2 9 -7 30 -19 47 -21 30 -21 31 -1 20 11
-6 30 -23 41 -38 l21 -28 -6 29 c-4 16 -15 37 -25 47 -11 11 -19 30 -19 43 0
14 -9 31 -21 39 -12 9 -26 37 -34 69 l-13 53 -1 -42z"/>
<path d="M5768 8720 c-51 -15 -86 -43 -107 -85 -20 -39 -21 -59 -21 -275 0
-269 6 -293 82 -343 l42 -27 1156 2 1156 3 37 25 c71 48 77 75 77 337 0 254
-5 280 -60 326 -17 15 -47 31 -68 37 -24 6 -270 10 -684 10 l-648 0 0 -51 c0
-72 -26 -166 -62 -221 -47 -75 -137 -151 -214 -184 -62 -25 -80 -28 -174 -27
-120 0 -168 15 -253 77 -52 38 -117 111 -143 161 -25 49 -44 128 -44 187 0 54
-2 58 -22 57 -13 0 -35 -4 -50 -9z m2202 -140 c27 -14 31 -49 9 -71 -18 -18
-40 -19 -579 -19 -547 0 -560 0 -580 20 -25 25 -25 35 0 60 19 19 35 19 576
19 329 0 564 -3 574 -9z m-108 -205 c9 -21 8 -28 -7 -45 -18 -20 -30 -20 -521
-20 l-504 0 -15 24 c-13 19 -14 29 -5 45 11 21 15 21 526 21 l514 0 12 -25z
m-301 -179 c8 -17 8 -29 0 -45 -12 -21 -15 -21 -370 -21 -336 0 -359 1 -375
19 -13 14 -14 24 -7 45 l11 26 365 0 365 0 11 -24z"/>
<path d="M6092 8680 c-19 -30 -45 -154 -34 -158 6 -2 8 -11 5 -21 -4 -15 1
-18 26 -17 17 1 36 7 42 13 7 7 26 9 46 6 39 -7 53 6 53 49 0 18 -9 33 -30 48
-17 12 -37 35 -46 52 -15 28 -16 29 -30 11 -14 -17 -15 -16 -9 10 6 32 -5 36
-23 7z"/>
<path d="M6041 8614 c0 -11 3 -14 6 -6 3 7 2 16 -1 19 -3 4 -6 -2 -5 -13z"/>
<path d="M6031 8554 c0 -11 3 -14 6 -6 3 7 2 16 -1 19 -3 4 -6 -2 -5 -13z"/>
<path d="M12619 8153 c-15 -18 -25 -39 -178 -358 -45 -93 -84 -171 -86 -174
-4 -3 -70 46 -115 86 -63 56 -167 133 -180 133 -30 0 -60 -30 -60 -60 0 -23
12 -39 63 -80 89 -74 95 -79 177 -145 41 -33 81 -66 88 -72 22 -21 62 -27 77
-12 13 13 171 324 225 444 12 27 28 55 36 62 8 8 14 21 14 29 0 8 9 32 20 54
25 48 25 79 3 96 -25 19 -67 17 -84 -3z"/>
<path d="M1907 8142 c-22 -24 -21 -54 2 -80 l18 -22 952 0 c885 0 952 1 971
17 25 22 26 65 2 86 -17 16 -99 17 -974 17 -912 0 -956 -1 -971 -18z"/>
<path d="M3925 7815 c-208 -56 -303 -144 -313 -289 -5 -82 31 -241 77 -335 31
-65 161 -206 161 -176 0 57 -13 95 -32 95 -52 0 -97 65 -78 114 17 45 96 47
104 3 2 -12 9 -66 15 -119 12 -109 33 -172 68 -205 35 -34 150 -98 221 -123
101 -37 83 -50 -103 -74 -71 -10 -138 -20 -148 -22 -11 -4 -30 7 -54 31 -33
33 -38 35 -64 25 -15 -7 -35 -20 -45 -31 -27 -29 -112 -57 -240 -76 -135 -20
-166 -36 -202 -103 -30 -56 -27 -130 6 -175 16 -22 29 -70 46 -170 14 -77 23
-141 21 -144 -3 -2 -1 -9 5 -15 5 -7 13 -30 18 -51 5 -22 35 -137 65 -255 31
-118 59 -248 63 -287 l7 -73 -800 0 c-762 0 -801 -1 -816 -18 -22 -24 -21 -54
2 -80 l18 -22 802 0 801 0 0 -315 0 -315 445 0 445 0 2 33 c1 17 2 223 3 457
1 457 0 440 69 890 37 240 46 315 46 371 0 48 0 49 31 49 17 0 158 -16 313
-36 154 -19 296 -33 315 -30 43 7 79 40 86 80 5 23 -20 112 -96 341 -55 171
-105 314 -109 319 -5 5 -39 5 -75 1 l-67 -7 6 -61 c4 -34 16 -116 26 -182 10
-66 21 -144 25 -174 l7 -54 -28 6 c-179 38 -449 106 -451 113 -2 5 37 100 86
211 49 110 91 208 93 217 2 10 -18 30 -57 56 -70 47 -53 57 -155 -94 -36 -53
-68 -96 -72 -96 -4 0 -5 17 -2 38 2 22 -3 12 -14 -28 -9 -36 -33 -86 -51 -112
-30 -42 -40 -48 -89 -59 -64 -13 -95 -9 -174 20 -67 26 -114 57 -139 91 -24
33 -69 190 -76 267 -5 54 -2 69 21 117 27 56 62 88 132 124 48 24 224 92 240
92 26 0 94 -73 114 -123 l20 -52 -6 65 c-8 83 -37 175 -68 222 -24 34 -117
112 -164 137 -28 15 -176 13 -237 -4z m229 -1507 c15 -253 27 -461 36 -595 16
-234 14 -291 -15 -351 -14 -29 -25 -56 -25 -62 0 -25 -19 -5 -54 58 l-38 67 7
490 c5 353 10 492 18 497 7 4 24 8 38 8 l27 0 6 -112z"/>
<path d="M12850 7715 l0 -35 153 0 c85 0 156 2 159 5 2 3 3 18 0 35 l-4 30
-154 0 -154 0 0 -35z"/>
<path d="M13296 7728 c1 -13 3 -29 3 -35 1 -10 68 -13 301 -13 l300 0 0 35 0
35 -303 0 -304 0 3 -22z"/>
<path d="M8716 7704 c-108 -24 -192 -72 -268 -152 -83 -89 -125 -171 -145
-289 -13 -81 -13 -98 1 -174 27 -146 99 -257 228 -357 58 -44 154 -76 263 -86
110 -11 249 23 326 80 l51 37 32 -35 c18 -20 42 -39 53 -42 11 -4 25 -18 31
-31 6 -14 15 -25 20 -25 4 0 26 18 47 40 l39 40 -68 69 -68 68 24 39 c54 87
88 204 88 298 0 23 -7 73 -15 111 -60 286 -353 473 -639 409z m222 -104 c76
-18 136 -52 197 -115 102 -103 145 -222 127 -353 -25 -174 -133 -308 -292
-362 -54 -19 -81 -21 -160 -18 -143 7 -245 60 -326 170 -90 123 -109 285 -49
431 46 113 167 219 282 246 52 12 169 13 221 1z"/>
<path d="M5471 7619 c-18 -6 -35 -18 -38 -29 -5 -19 -51 -32 -458 -125 -88
-20 -173 -41 -190 -45 -16 -5 -51 -12 -78 -16 -26 -3 -50 -10 -53 -15 -3 -5
-16 -9 -30 -9 -13 0 -72 -12 -130 -26 l-106 -27 6 -31 c11 -55 21 -58 127 -41
52 8 97 15 101 15 4 0 16 17 27 39 24 46 75 91 103 91 17 0 19 -4 14 -25 -3
-14 -9 -36 -12 -50 -5 -20 -2 -25 22 -31 18 -5 46 -1 76 10 29 10 61 15 81 11
17 -3 61 -1 97 5 36 6 80 12 98 14 334 41 322 41 352 23 19 -12 39 -15 61 -11
71 14 69 9 40 151 -25 121 -27 128 -51 130 -14 1 -40 -3 -59 -8z m-138 -96
c-7 -2 -19 -2 -25 0 -7 3 -2 5 12 5 14 0 19 -2 13 -5z m-136 -29 c-3 -3 -12
-4 -19 -1 -8 3 -5 6 6 6 11 1 17 -2 13 -5z m130 0 c-3 -3 -12 -4 -19 -1 -8 3
-5 6 6 6 11 1 17 -2 13 -5z m-290 -70 c-3 -3 -12 -4 -19 -1 -8 3 -5 6 6 6 11
1 17 -2 13 -5z m-72 -14 c-3 -5 -12 -10 -18 -10 -7 0 -6 4 3 10 19 12 23 12
15 0z m-158 -6 c-3 -3 -12 -4 -19 -1 -8 3 -5 6 6 6 11 1 17 -2 13 -5z m500
-30 c-3 -3 -12 -4 -19 -1 -8 3 -5 6 6 6 11 1 17 -2 13 -5z m-682 -14 c-3 -5
-16 -10 -28 -9 -20 1 -20 2 3 9 14 4 26 8 28 9 2 1 0 -3 -3 -9z m625 6 c0 -2
-13 -6 -29 -8 -17 -2 -28 -1 -25 4 5 8 54 12 54 4z m-676 -25 c19 -7 18 -8 -4
-14 -13 -3 -26 -4 -29 -2 -2 3 2 5 10 6 8 1 3 5 -11 9 -20 6 -21 8 -5 8 11 0
29 -3 39 -7z m-89 -11 c3 -5 1 -10 -4 -10 -6 0 -11 5 -11 10 0 6 2 10 4 10 3
0 8 -4 11 -10z m123 -47 c-10 -2 -26 -2 -35 0 -10 3 -2 5 17 5 19 0 27 -2 18
-5z"/>
<path d="M10095 7603 c-11 -2 -32 -9 -47 -15 -15 -5 -46 -11 -70 -13 -60 -4
-71 -7 -106 -36 -39 -34 -78 -111 -104 -207 -27 -101 -29 -322 -5 -429 22 -96
90 -278 142 -383 l43 -85 -51 -28 -50 -29 74 -74 c40 -40 76 -70 79 -66 4 4
12 50 19 102 16 113 16 113 43 125 27 12 36 41 37 116 1 53 -1 57 -28 68 -45
19 -134 111 -161 168 -17 35 -28 48 -36 42 -17 -14 -44 0 -44 24 0 11 -9 39
-19 61 -11 23 -21 63 -23 91 -3 47 -2 50 27 59 17 6 32 14 35 17 3 4 32 37 65
74 82 93 109 132 130 188 10 26 21 50 26 52 4 3 16 -10 27 -27 21 -34 40 -50
182 -149 103 -72 181 -146 203 -192 11 -23 17 -61 17 -111 0 -74 -1 -76 -25
-76 -14 0 -25 5 -25 10 0 25 -19 5 -45 -47 -15 -32 -50 -79 -76 -104 -44 -43
-49 -51 -48 -91 1 -76 20 -121 62 -143 20 -11 37 -24 37 -28 0 -7 -107 -162
-143 -207 -32 -40 -97 -148 -97 -161 0 -20 56 -73 68 -65 6 3 23 -12 39 -35
15 -23 45 -61 66 -84 20 -23 37 -46 37 -51 0 -4 -11 -20 -25 -34 -23 -24 -24
-31 -18 -93 5 -62 8 -68 27 -65 16 2 41 42 106 172 47 93 90 171 96 173 6 2
25 -14 44 -34 18 -21 72 -80 118 -131 47 -51 82 -95 79 -98 -2 -3 -74 -19
-158 -37 l-154 -32 0 -65 c0 -38 4 -64 10 -63 6 1 77 6 159 12 227 17 308 40
361 103 23 27 26 39 23 78 -9 89 -133 292 -330 539 l-115 143 13 76 c23 132
44 347 44 455 0 266 -130 536 -299 620 -47 23 -67 27 -135 26 -45 -1 -90 -3
-101 -6z"/>
<path d="M14227 7583 c-2 -1 -28 -7 -57 -13 -61 -12 -147 -53 -186 -88 -15
-14 -36 -46 -48 -71 -34 -75 -25 -248 17 -306 16 -21 11 -31 53 109 13 42 29
71 57 98 38 37 39 37 65 20 15 -9 29 -19 32 -22 3 -3 39 -23 80 -44 85 -44
139 -91 176 -154 29 -49 70 -203 80 -297 4 -36 10 -65 14 -65 11 0 79 230 95
324 43 253 -13 419 -160 476 -30 12 -212 39 -218 33z"/>
<path d="M12850 7535 l0 -35 160 0 160 0 0 35 0 35 -160 0 -160 0 0 -35z"/>
<path d="M13298 7535 l-4 -35 303 0 303 0 0 35 0 35 -299 0 -299 0 -4 -35z"/>
<path d="M2705 7261 c-223 -56 -390 -226 -450 -461 -23 -88 -16 -243 15 -320
12 -30 23 -56 24 -58 3 -3 73 15 181 46 39 11 124 34 190 51 66 18 135 37 153
42 l32 11 0 354 0 354 -37 -1 c-21 0 -69 -8 -108 -18z"/>
<path d="M7530 6843 c-25 -23 -33 -40 -41 -96 -10 -64 -9 -70 15 -113 32 -57
32 -71 4 -80 -13 -4 -51 -20 -85 -36 -45 -21 -63 -35 -63 -49 0 -18 10 -19
240 -19 239 0 239 0 232 21 -9 24 -31 38 -115 73 l-58 25 26 50 c21 43 24 59
19 108 -9 85 -21 119 -50 132 -44 20 -91 14 -124 -16z"/>
<path d="M13977 6655 c-74 -110 -92 -146 -64 -128 6 4 30 13 52 18 35 9 46 20
97 95 31 47 57 87 57 90 1 6 -53 40 -61 40 -3 0 -39 -52 -81 -115z"/>
<path d="M14350 6645 c-19 -13 -56 -30 -82 -36 -46 -13 -48 -12 -89 20 -33 27
-43 31 -50 20 -5 -8 -9 -17 -9 -21 0 -4 -7 -13 -15 -22 -23 -22 -27 -397 -5
-403 13 -4 13 -3 1 5 -11 8 24 49 165 192 98 101 184 188 190 194 9 9 2 20
-27 44 -21 18 -39 32 -41 31 -2 0 -19 -11 -38 -24z"/>
<path d="M2571 6449 c-140 -38 -257 -71 -259 -73 -11 -12 61 -118 123 -181 89
-91 199 -149 325 -171 46 -8 90 -12 97 -9 10 3 13 62 13 255 l0 250 -22 -1
c-13 0 -137 -32 -277 -70z"/>
<path d="M13773 6384 c-17 -43 -26 -76 -29 -104 -1 -14 -4 -38 -7 -55 -2 -16
-2 -24 0 -17 3 7 9 9 15 6 6 -4 8 1 3 15 -4 12 -2 21 4 21 6 0 11 21 11 51 0
28 5 59 11 70 6 11 9 25 7 31 -2 6 -9 -2 -15 -18z"/>
<path d="M14814 6270 c0 -58 1 -81 3 -52 2 28 2 76 0 105 -2 28 -3 5 -3 -53z"/>
<path d="M9418 6321 c-17 -14 -41 -21 -68 -21 -39 0 -42 -2 -36 -22 92 -344
135 -457 190 -506 43 -37 97 -44 118 -14 7 11 32 31 55 45 23 14 44 31 48 37
9 14 28 13 22 -2 -2 -7 1 -24 8 -38 9 -17 10 -40 4 -75 -4 -27 -8 -122 -8
-210 -1 -88 -8 -209 -16 -270 -8 -60 -15 -127 -15 -147 l0 -38 79 0 79 0 20
78 c12 42 25 93 30 112 l9 35 7 -35 c5 -19 19 -69 32 -111 l25 -76 222 -7
c122 -4 230 -9 240 -12 11 -4 17 -15 17 -34 l0 -28 -112 -6 c-62 -3 -233 -8
-380 -12 -207 -4 -268 -3 -268 6 0 9 -3 10 -14 1 -10 -8 -15 -51 -19 -159 -8
-204 -38 -466 -68 -595 -7 -29 -8 -52 -2 -58 26 -26 461 -97 654 -107 l125 -7
-18 -105 c-29 -172 -34 -332 -13 -420 10 -46 19 -139 22 -237 l6 -163 143 0
144 0 0 683 0 682 31 -55 c17 -30 73 -136 125 -236 l94 -181 0 -447 0 -446
175 0 c133 0 175 3 175 13 0 6 0 177 0 380 l0 367 71 168 c39 92 74 172 78
177 4 6 20 42 36 80 40 96 64 142 67 130 2 -5 3 -302 3 -660 l0 -650 178 -3
177 -2 0 983 0 984 58 31 c32 17 84 47 117 66 32 20 62 36 67 36 4 0 8 -473 8
-1050 l0 -1050 178 2 177 3 -4 1116 c-2 618 1 1119 5 1122 5 2 64 8 132 12
l122 7 0 -1131 0 -1131 175 0 175 0 0 1185 0 1185 73 68 c39 38 96 90 124 116
l53 49 2 -1299 3 -1299 175 0 175 0 3 640 c2 525 0 661 -13 757 -20 154 -20
459 0 553 21 98 18 472 -3 498 -9 9 -13 20 -9 23 3 3 10 -4 17 -15 6 -12 16
-21 22 -21 16 0 48 40 54 69 3 14 10 43 16 65 11 45 9 132 -5 164 -6 13 -19
22 -32 22 -15 0 -32 14 -50 40 -22 32 -26 47 -22 82 5 51 43 236 53 263 7 18
6 18 -9 6 -14 -11 -18 -11 -22 1 -3 8 -5 21 -3 29 2 12 -27 14 -172 14 l-175
0 -3 -148 c-2 -95 1 -155 9 -168 8 -16 8 -24 -1 -33 -8 -8 -10 -7 -5 5 4 11
-4 26 -22 42 -84 78 -148 119 -89 58 15 -16 27 -33 26 -38 -5 -20 -22 -43 -32
-43 -9 0 -9 3 0 12 17 17 15 35 -9 68 -13 17 -27 26 -36 23 -9 -4 -16 2 -20
16 -3 11 -10 21 -16 21 -6 0 -8 2 -5 5 9 9 38 -6 38 -19 0 -7 7 -13 15 -13 21
0 19 6 -12 38 l-27 27 -43 -35 -42 -35 35 -31 c22 -18 38 -26 42 -20 4 6 14 3
27 -9 16 -16 17 -18 2 -13 -26 11 -20 -5 17 -44 83 -87 136 -146 136 -152 0
-3 -30 -34 -67 -69 -38 -35 -100 -95 -140 -133 l-72 -68 -68 1 c-37 1 -107 1
-155 1 l-88 -1 0 -44 c0 -25 -4 -47 -8 -50 -5 -3 -64 -8 -130 -12 l-122 -7 0
134 0 134 -175 0 -175 0 -2 -200 -3 -200 -115 -67 c-63 -36 -118 -67 -122 -67
-5 -1 -8 84 -8 189 l0 189 -62 3 c-35 2 -114 2 -175 0 l-113 -3 -1 -357 c-2
-597 6 -521 -77 -707 -40 -88 -94 -208 -120 -267 -26 -59 -51 -108 -55 -108
-4 0 -7 15 -6 33 2 17 2 116 1 220 l-2 187 -172 -2 -173 -3 -5 -175 c-5 -158
-6 -173 -19 -150 -8 14 -63 117 -123 229 l-108 204 0 199 0 198 -93 0 -93 0
-48 144 c-32 98 -63 170 -97 224 -27 44 -49 87 -49 96 0 9 -8 16 -18 16 -35 0
-59 29 -76 90 -17 60 -18 61 -37 44 -24 -21 -6 -36 -283 239 -114 114 -214
207 -221 207 -6 0 -20 -18 -30 -40 -28 -61 -41 -67 -55 -25 -6 19 -40 92 -74
161 l-62 125 -26 -20z m3723 -231 c10 0 19 -4 19 -10 0 -13 -6 -13 -31 0 -10
6 -19 16 -18 23 0 9 2 9 6 0 2 -7 13 -13 24 -13z m89 -50 c0 -5 -5 -10 -11
-10 -5 0 -7 5 -4 10 3 6 8 10 11 10 2 0 4 -4 4 -10z m94 -36 c9 -24 7 -28 -9
-14 -17 14 -20 30 -6 30 5 0 12 -7 15 -16z m-34 -12 c0 -13 -12 -22 -22 -16
-10 6 -1 24 13 24 5 0 9 -4 9 -8z m-10 -60 c0 -8 -1 -13 -3 -11 -1 2 -9 12
-16 22 -12 15 -12 17 3 11 9 -3 16 -13 16 -22z m184 -26 c-10 -8 -21 -12 -24
-10 -5 6 21 24 34 24 6 0 1 -6 -10 -14z m213 -33 c-3 -10 -5 -2 -5 17 0 19 2
27 5 18 2 -10 2 -26 0 -35z m-190 11 c-3 -3 -12 -4 -19 -1 -8 3 -5 6 6 6 11 1
17 -2 13 -5z m-137 -19 c19 -23 8 -25 -14 -4 -11 11 -15 19 -9 19 6 0 16 -7
23 -15z m312 -57 c-8 -8 -9 -4 -5 13 4 13 8 18 11 10 2 -7 -1 -18 -6 -23z
m-250 -28 c12 -11 19 -22 16 -25 -2 -3 -15 6 -28 20 -28 30 -18 34 12 5z m365
-27 c-3 -10 -5 -2 -5 17 0 19 2 27 5 18 2 -10 2 -26 0 -35z m-282 -53 c3 -5 1
-10 -4 -10 -6 0 -11 5 -11 10 0 6 2 10 4 10 3 0 8 -4 11 -10z m272 -42 c-3 -7
-5 -2 -5 12 0 14 2 19 5 13 2 -7 2 -19 0 -25z m-247 12 c0 -5 -2 -10 -4 -10
-3 0 -8 5 -11 10 -3 6 -1 10 4 10 6 0 11 -4 11 -10z m215 -55 c-4 -38 -15 -43
-15 -7 0 18 4 32 9 32 5 0 8 -11 6 -25z m-48 -61 c-3 -3 -12 -4 -19 -1 -8 3
-5 6 6 6 11 1 17 -2 13 -5z"/>
<path d="M5643 6282 c-57 -23 -115 -77 -144 -132 l-24 -45 -3 -748 -2 -747
287 2 288 3 -1 721 c-2 800 -1 792 -67 869 -53 62 -116 89 -212 92 -59 2 -91
-2 -122 -15z"/>
<path d="M14811 6104 c0 -11 3 -14 6 -6 3 7 2 16 -1 19 -3 4 -6 -2 -5 -13z"/>
<path d="M3310 6075 c19 -19 36 -35 39 -35 3 0 -10 16 -29 35 -19 19 -36 35
-39 35 -3 0 10 -16 29 -35z"/>
<path d="M2429 6083 c-13 -16 -12 -17 4 -4 9 7 17 15 17 17 0 8 -8 3 -21 -13z"/>
<path d="M14025 5971 c-25 -38 -45 -71 -45 -74 0 -16 -149 -255 -153 -245 -2
7 -2 3 -1 -9 2 -12 0 -25 -6 -28 -18 -11 -11 -44 13 -56 12 -7 26 -18 30 -25
4 -8 12 -14 18 -14 5 0 36 -26 68 -57 31 -32 72 -71 89 -87 l32 -30 25 24 c32
30 32 41 -2 34 -16 -2 -35 0 -43 5 -29 20 7 33 110 40 87 5 103 4 107 -9 17
-54 23 -62 49 -56 17 5 23 3 19 -4 -3 -5 -17 -10 -30 -10 -16 0 -43 -19 -80
-55 l-55 -55 46 -42 c71 -65 103 -86 124 -81 21 6 43 35 55 73 4 14 11 27 15
30 8 6 76 135 89 172 8 21 21 30 68 43 123 34 202 67 218 91 17 27 21 109 4
99 -5 -4 -18 0 -27 8 -29 24 -52 27 -77 11 -14 -9 -31 -14 -38 -11 -7 3 -19
-4 -25 -14 -25 -40 -52 -26 -161 81 -31 31 -83 78 -115 105 -32 28 -79 68
-104 90 -78 70 -86 76 -114 93 -16 9 -28 20 -28 24 0 4 -7 8 -15 8 -9 0 -36
-31 -60 -69z m19 -61 c-10 -16 -20 -28 -22 -26 -4 5 28 56 35 56 2 0 -4 -13
-13 -30z m-48 -133 c-2 -7 -5 -4 -5 6 -1 9 -6 17 -12 17 -5 0 -7 5 -3 11 9 15
28 -16 20 -34z m-27 -19 c-7 -12 -12 -26 -11 -30 1 -5 -2 -8 -8 -8 -5 0 -10 2
-10 5 0 13 32 66 37 62 2 -3 -1 -16 -8 -29z m25 -23 c-6 -16 -24 -21 -24 -7 0
11 11 22 21 22 5 0 6 -7 3 -15z m-84 -99 c0 -3 -4 -8 -10 -11 -5 -3 -10 -1
-10 4 0 6 5 11 10 11 6 0 10 -2 10 -4z m724 -34 c-6 -4 -14 -16 -19 -27 -8
-20 -8 -20 -13 -1 -4 19 26 52 37 40 3 -3 1 -8 -5 -12z m-744 -1 c0 -6 -4 -13
-10 -16 -5 -3 -10 1 -10 9 0 9 5 16 10 16 6 0 10 -4 10 -9z m690 -7 c0 -2 -7
-4 -15 -4 -8 0 -15 4 -15 10 0 5 7 7 15 4 8 -4 15 -8 15 -10z m-40 -19 c0 -8
-4 -15 -10 -15 -5 0 -10 7 -10 15 0 8 5 15 10 15 6 0 10 -7 10 -15z m-635 -5
c3 -5 1 -10 -4 -10 -6 0 -11 5 -11 10 0 6 2 10 4 10 3 0 8 -4 11 -10z m675 -6
c0 -2 -7 -4 -15 -4 -8 0 -15 4 -15 10 0 5 7 7 15 4 8 -4 15 -8 15 -10z m-100
-4 c0 -5 -8 -10 -17 -10 -15 0 -16 2 -3 10 19 12 20 12 20 0z m193 -27 c-7 -2
-19 -2 -25 0 -7 3 -2 5 12 5 14 0 19 -2 13 -5z m-279 -22 c-17 -10 -40 -22
-52 -25 -11 -4 -23 -17 -25 -29 -4 -15 -5 -13 -4 7 2 24 9 31 47 46 60 24 72
24 34 1z m291 -1 c-11 -5 -27 -9 -35 -9 -9 0 -8 4 5 9 11 5 27 9 35 9 9 0 8
-4 -5 -9z m-385 -39 c0 -6 -4 -13 -10 -16 -5 -3 -10 1 -10 9 0 9 5 16 10 16 6
0 10 -4 10 -9z m177 3 c-3 -3 -12 -4 -19 -1 -8 3 -5 6 6 6 11 1 17 -2 13 -5z
m78 -9 c-16 -8 -37 -14 -45 -14 -8 0 1 7 20 14 46 18 64 17 25 0z m-258 -47
c-3 -8 -6 -5 -6 6 -1 11 2 17 5 13 3 -3 4 -12 1 -19z m188 12 c-3 -5 -13 -10
-21 -10 -8 0 -12 5 -9 10 3 6 13 10 21 10 8 0 12 -4 9 -10z m-55 -20 c0 -5 -7
-10 -15 -10 -8 0 -15 5 -15 10 0 6 7 10 15 10 8 0 15 -4 15 -10z m-47 -17 c-7
-2 -19 -2 -25 0 -7 3 -2 5 12 5 14 0 19 -2 13 -5z"/>
<path d="M14631 5934 c0 -11 3 -14 6 -6 3 7 2 16 -1 19 -3 4 -6 -2 -5 -13z"/>
<path d="M3164 5526 c-15 -12 -17 -18 -8 -33 9 -15 25 -18 95 -18 73 0 84 2
87 18 2 10 -2 24 -8 32 -17 20 -139 20 -166 1z"/>
<path d="M13731 5214 c0 -11 3 -14 6 -6 3 7 2 16 -1 19 -3 4 -6 -2 -5 -13z"/>
<path d="M14580 5101 c0 -6 4 -13 10 -16 6 -3 7 1 4 9 -7 18 -14 21 -14 7z"/>
<path d="M7350 4370 c0 -5 5 -10 11 -10 5 0 7 5 4 10 -3 6 -8 10 -11 10 -2 0
-4 -4 -4 -10z"/>
<path d="M15730 4272 c0 -7 -8 -12 -19 -12 -16 0 -75 -23 -166 -65 -16 -8 -52
-24 -80 -36 -92 -39 -262 -125 -293 -147 -16 -12 -33 -22 -37 -22 -8 0 -164
-99 -185 -117 -8 -7 -52 -40 -97 -73 -79 -57 -102 -79 -67 -66 9 3 12 2 9 -5
-4 -6 -14 -8 -22 -5 -10 4 -37 -12 -72 -41 -31 -27 -67 -57 -80 -68 -14 -11
-42 -37 -64 -57 -22 -21 -44 -38 -49 -38 -6 0 -7 -14 -2 -37 4 -21 10 -58 14
-83 6 -43 7 -42 14 35 14 130 25 132 25 3 -1 -64 1 -121 5 -126 3 -5 -1 -12
-8 -15 -10 -4 -16 2 -19 16 -4 18 -5 17 -6 -5 0 -17 4 -28 12 -28 17 0 244 99
278 121 13 9 41 24 62 34 29 13 35 20 25 27 -9 7 -7 8 8 4 13 -4 33 4 60 24
21 16 44 30 49 30 6 0 26 13 45 30 19 16 40 29 46 30 6 0 19 9 28 19 13 15 14
20 4 25 -7 3 -3 3 9 0 14 -3 29 2 40 13 11 10 46 41 78 68 87 73 166 155 160
165 -3 5 0 12 6 16 8 4 9 3 5 -4 -4 -7 -3 -12 3 -12 15 0 26 23 13 28 -7 2
-12 8 -12 14 0 7 4 7 13 -1 10 -8 21 -3 46 23 18 19 30 39 27 45 -4 6 1 22 10
36 9 14 12 25 6 25 -6 0 -16 -8 -21 -17 -6 -10 -11 -13 -11 -6 0 6 4 14 9 17
4 3 11 31 14 62 3 31 9 59 12 62 10 10 25 -21 20 -43 -3 -11 -7 -37 -9 -58 -3
-21 -10 -45 -17 -53 -6 -8 -9 -17 -6 -20 5 -5 30 26 75 92 32 49 82 129 85
138 3 6 8 8 12 4 8 -7 -15 -78 -25 -78 -4 0 -15 -18 -25 -40 -10 -22 -22 -40
-27 -40 -4 0 -8 -6 -8 -13 0 -8 -11 -24 -25 -37 -14 -13 -23 -30 -21 -37 3 -6
0 -10 -7 -7 -11 4 -22 -11 -63 -79 -6 -10 -15 -19 -20 -20 -12 -3 -5 -27 12
-44 18 -18 18 -18 -13 -20 -14 0 -21 2 -14 6 7 5 9 15 4 29 -8 20 -9 19 -39
-13 -17 -19 -29 -36 -27 -39 3 -3 -2 -14 -10 -26 -10 -14 -16 -17 -19 -9 -3 8
-15 2 -34 -18 -16 -16 -42 -38 -57 -48 -17 -11 -26 -24 -23 -32 4 -8 1 -11 -5
-7 -6 3 -20 -3 -32 -14 -12 -11 -42 -32 -67 -48 -25 -16 -54 -37 -64 -46 -11
-10 -23 -18 -28 -18 -4 0 -8 -7 -8 -16 0 -8 -4 -12 -10 -9 -5 3 -29 -7 -52
-23 -24 -16 -54 -33 -67 -37 -18 -5 -20 -9 -10 -16 11 -7 10 -9 -4 -9 -10 0
-55 -18 -101 -40 -45 -22 -86 -40 -91 -40 -5 0 -16 -6 -24 -13 -9 -8 -45 -24
-81 -37 -36 -13 -71 -28 -77 -33 -9 -6 -13 -37 -13 -88 l0 -79 73 0 c81 0 285
29 425 61 103 23 263 82 332 123 25 15 60 34 78 43 18 10 30 23 28 29 -3 8 1
11 10 7 16 -6 141 119 165 165 8 15 20 33 27 41 8 8 11 26 8 45 -4 21 -3 25 2
12 8 -17 9 -16 20 10 29 72 53 215 58 349 6 143 -6 289 -25 308 -8 8 -11 8
-11 -1z m-290 -247 c-3 -64 -8 -105 -13 -97 -12 18 -6 195 7 204 6 4 11 6 11
5 0 -1 -2 -51 -5 -112z m87 73 c-3 -8 -6 -5 -6 6 -1 11 2 17 5 13 3 -3 4 -12
1 -19z m-201 -33 c-19 -15 -19 -15 5 -16 13 0 18 -3 12 -6 -9 -3 -13 -35 -13
-111 0 -59 -4 -113 -9 -120 -14 -23 -19 37 -11 133 6 71 5 92 -5 99 -11 8 -10
12 3 23 9 7 22 12 27 12 6 0 1 -6 -9 -14z m261 -17 c-3 -8 -6 -5 -6 6 -1 11 2
17 5 13 3 -3 4 -12 1 -19z m-290 -30 c-3 -8 -6 -5 -6 6 -1 11 2 17 5 13 3 -3
4 -12 1 -19z m110 -25 c-3 -10 -5 -2 -5 17 0 19 2 27 5 18 2 -10 2 -26 0 -35z
m266 10 c-7 -2 -19 -2 -25 0 -7 3 -2 5 12 5 14 0 19 -2 13 -5z m62 -34 c5 -5
-14 -9 -47 -9 -61 0 -88 7 -88 22 0 11 121 0 135 -13z m-438 -31 c-3 -8 -6 -5
-6 6 -1 11 2 17 5 13 3 -3 4 -12 1 -19z m-121 -126 c-3 -65 -5 -124 -6 -132 0
-13 -1 -13 -10 0 -11 17 -13 96 -4 192 11 111 25 66 20 -60z m171 76 c-3 -7
-5 -2 -5 12 0 14 2 19 5 13 2 -7 2 -19 0 -25z m216 17 c-3 -9 -8 -14 -10 -11
-3 3 -2 9 2 15 9 16 15 13 8 -4z m-528 -5 c-3 -5 -12 -10 -18 -10 -7 0 -6 4 3
10 19 12 23 12 15 0z m641 -55 c96 -20 37 -32 -64 -12 -47 9 -89 14 -93 11
-11 -6 -12 10 -2 19 7 8 72 1 159 -18z m11 19 c-3 -3 -12 -4 -19 -1 -8 3 -5 6
6 6 11 1 17 -2 13 -5z m-708 -163 c-5 -73 -6 -137 -4 -141 3 -5 1 -11 -4 -14
-20 -13 -27 62 -17 179 9 102 15 130 26 119 4 -5 4 -69 -1 -143z m31 79 c-5
-22 -8 -27 -9 -13 -1 21 9 56 14 51 2 -2 0 -19 -5 -38z m430 -45 c0 5 5 4 12
-3 7 -7 24 -12 40 -12 15 0 62 -5 104 -11 59 -9 72 -14 59 -22 -22 -12 -121
-2 -197 21 -46 13 -55 19 -46 30 9 10 13 11 19 0 5 -7 9 -9 9 -3z m259 -28 c0
-9 -2 -9 -5 0 -3 7 -13 9 -22 6 -14 -4 -14 -3 -2 5 16 12 30 7 29 -11z m-942
-89 c-4 -46 -7 -113 -7 -150 0 -39 -4 -68 -10 -68 -6 0 -10 34 -10 83 0 114
11 217 23 217 6 0 8 -30 4 -82z m710 66 c-3 -3 -12 -4 -19 -1 -8 3 -5 6 6 6
11 1 17 -2 13 -5z m218 -13 c-3 -6 -11 -11 -16 -11 -5 0 -4 6 3 14 14 16 24
13 13 -3z m-898 -23 c-3 -7 -5 -2 -5 12 0 14 2 19 5 13 2 -7 2 -19 0 -25z
m915 -10 c-8 -8 -9 -4 -5 13 4 13 8 18 11 10 2 -7 -1 -18 -6 -23z m-219 15
c-7 -2 -21 -2 -30 0 -10 3 -4 5 12 5 17 0 24 -2 18 -5z m-456 -45 c-3 -7 -5
-2 -5 12 0 14 2 19 5 13 2 -7 2 -19 0 -25z m326 15 c-7 -2 -21 -2 -30 0 -10 3
-4 5 12 5 17 0 24 -2 18 -5z m-356 -50 c-3 -10 -5 -4 -5 12 0 17 2 24 5 18 2
-7 2 -21 0 -30z m393 -2 c36 -6 80 -14 98 -17 17 -3 32 -9 32 -15 0 -10 -93
-4 -150 11 -19 5 -47 12 -62 15 -16 3 -28 10 -28 16 0 7 10 9 23 6 12 -3 51
-11 87 -16z m-195 -1 c-3 -5 -12 -10 -18 -10 -7 0 -6 4 3 10 19 12 23 12 15 0z
m-418 -82 c-3 -8 -6 -5 -6 6 -1 11 2 17 5 13 3 -3 4 -12 1 -19z m834 -11 c-10
-9 -11 -8 -5 6 3 10 9 15 12 12 3 -3 0 -11 -7 -18z m-511 3 c0 -5 -4 -10 -10
-10 -5 0 -10 5 -10 10 0 6 5 10 10 10 6 0 10 -4 10 -10z m140 -61 c47 -7 94
-16 105 -21 29 -13 -159 0 -223 15 -58 14 -60 31 -2 23 19 -3 73 -11 120 -17z
m-275 2 c3 -5 2 -12 -3 -15 -5 -3 -9 1 -9 9 0 17 3 19 12 6z m585 -15 c0 -3
-15 -15 -32 -27 l-33 -22 25 26 c23 24 40 33 40 23z m-850 -36 c0 -5 -5 -10
-11 -10 -5 0 -7 5 -4 10 3 6 8 10 11 10 2 0 4 -4 4 -10z m527 4 c-3 -3 -12 -4
-19 -1 -8 3 -5 6 6 6 11 1 17 -2 13 -5z m46 -31 c-7 -2 -19 -2 -25 0 -7 3 -2
5 12 5 14 0 19 -2 13 -5z m80 0 c-7 -2 -21 -2 -30 0 -10 3 -4 5 12 5 17 0 24
-2 18 -5z m-335 -40 c125 -17 160 -33 75 -33 -45 0 -194 23 -234 35 -30 10
-22 28 9 22 15 -4 82 -14 150 -24z m392 3 c0 -2 -7 -7 -16 -10 -8 -3 -12 -2
-9 4 6 10 25 14 25 6z m-700 -92 c58 -8 120 -18 138 -20 47 -7 39 -24 -10 -24
-45 0 -214 25 -242 36 -19 7 -21 24 -3 24 6 0 59 -7 117 -16z m83 9 c-7 -2
-19 -2 -25 0 -7 3 -2 5 12 5 14 0 19 -2 13 -5z m-126 -49 c-3 -3 -12 -4 -19
-1 -8 3 -5 6 6 6 11 1 17 -2 13 -5z m300 -30 c-3 -3 -12 -4 -19 -1 -8 3 -5 6
6 6 11 1 17 -2 13 -5z"/>
<path d="M13742 4195 c0 -16 2 -22 5 -12 2 9 2 23 0 30 -3 6 -5 -1 -5 -18z"/>
<path d="M3577 3943 c-2 -5 0 -65 5 -134 8 -109 7 -144 -11 -267 -42 -285 -39
-443 19 -847 15 -110 34 -265 40 -345 7 -80 14 -147 16 -150 10 -9 194 -12
194 -3 0 6 -17 18 -38 27 -40 18 -71 54 -54 65 5 3 21 103 35 221 51 421 77
762 77 1030 1 85 7 209 14 275 8 66 12 123 9 128 -2 4 -71 7 -153 7 -82 0
-151 -3 -153 -7z"/>
<path d="M4110 3920 c0 -16 5 -73 11 -127 9 -81 8 -121 -5 -224 -30 -237 -22
-420 44 -954 16 -132 33 -280 37 -330 l8 -90 98 -3 c98 -3 123 7 68 26 -15 6
-38 21 -50 34 -21 21 -22 29 -16 113 4 50 17 191 31 315 55 516 66 743 42 910
-14 103 -15 127 -5 258 l9 102 -136 0 -136 0 0 -30z"/>
<path d="M5470 3729 c0 -138 4 -218 11 -232 7 -12 35 -58 64 -102 29 -44 87
-135 130 -202 43 -68 79 -123 80 -123 1 0 34 48 71 106 38 58 88 135 112 171
23 36 42 68 42 72 0 3 14 24 30 45 l30 40 0 218 0 218 -285 0 -285 0 0 -211z"/>
<path d="M15390 3769 c0 -5 5 -7 10 -4 6 3 10 8 10 11 0 2 -4 4 -10 4 -5 0
-10 -5 -10 -11z"/>
<path d="M14238 3285 l-38 -32 0 -87 0 -86 51 0 c43 0 50 3 45 16 -3 9 -6 28
-7 42 0 24 -1 25 -9 7 -7 -17 -9 -17 -9 -2 -1 19 -14 22 -40 7 -17 -9 -18 -5
-13 38 6 61 12 67 12 13 0 -39 1 -41 16 -27 8 9 19 14 24 11 16 -10 19 11 12
72 l-7 61 -37 -33z"/>
<path d="M8060 3040 c0 -5 6 -10 14 -10 8 0 18 5 21 10 3 6 -3 10 -14 10 -12
0 -21 -4 -21 -10z"/>
<path d="M10090 2458 c-82 -76 -111 -91 -160 -83 -31 5 -43 2 -63 -15 -30 -26
-52 -73 -43 -95 14 -37 123 1 224 79 93 72 114 98 110 139 l-3 35 -65 -60z"/>
<path d="M10280 2369 c0 -17 -84 -94 -118 -108 -29 -12 -35 -12 -52 4 -18 16
-19 15 -39 -24 -39 -75 -17 -115 52 -97 33 8 111 75 146 126 30 44 43 110 21
110 -5 0 -10 -5 -10 -11z"/>
<path d="M14092 2305 c0 -16 2 -22 5 -12 2 9 2 23 0 30 -3 6 -5 -1 -5 -18z"/>
<path d="M14421 2264 c0 -11 3 -14 6 -6 3 7 2 16 -1 19 -3 4 -6 -2 -5 -13z"/>
<path d="M13956 2195 c-3 -8 -1 -15 4 -15 6 0 10 7 10 15 0 8 -2 15 -4 15 -2
0 -6 -7 -10 -15z"/>
<path d="M14248 2173 c6 -2 18 -2 25 0 6 3 1 5 -13 5 -14 0 -19 -2 -12 -5z"/>
</g>
</svg>
